<svg width="120" height="120" viewBox="0 0 120 120" fill="none" xmlns="http://www.w3.org/2000/svg">
<path opacity="0.2" d="M101.25 22.5V41.25H18.75V22.5C18.75 21.5054 19.1451 20.5516 19.8484 19.8484C20.5516 19.1451 21.5054 18.75 22.5 18.75H97.5C98.4946 18.75 99.4484 19.1451 100.152 19.8484C100.855 20.5516 101.25 21.5054 101.25 22.5Z" fill="#0D8964"/>
<path d="M97.5 15H86.25V11.25C86.25 10.2554 85.8549 9.30161 85.1517 8.59835C84.4484 7.89509 83.4946 7.5 82.5 7.5C81.5054 7.5 80.5516 7.89509 79.8483 8.59835C79.1451 9.30161 78.75 10.2554 78.75 11.25V15H41.25V11.25C41.25 10.2554 40.8549 9.30161 40.1516 8.59835C39.4484 7.89509 38.4946 7.5 37.5 7.5C36.5054 7.5 35.5516 7.89509 34.8484 8.59835C34.1451 9.30161 33.75 10.2554 33.75 11.25V15H22.5C20.5109 15 18.6032 15.7902 17.1967 17.1967C15.7902 18.6032 15 20.5109 15 22.5V97.5C15 99.4891 15.7902 101.397 17.1967 102.803C18.6032 104.21 20.5109 105 22.5 105H97.5C99.4891 105 101.397 104.21 102.803 102.803C104.21 101.397 105 99.4891 105 97.5V22.5C105 20.5109 104.21 18.6032 102.803 17.1967C101.397 15.7902 99.4891 15 97.5 15ZM33.75 22.5V26.25C33.75 27.2446 34.1451 28.1984 34.8484 28.9016C35.5516 29.6049 36.5054 30 37.5 30C38.4946 30 39.4484 29.6049 40.1516 28.9016C40.8549 28.1984 41.25 27.2446 41.25 26.25V22.5H78.75V26.25C78.75 27.2446 79.1451 28.1984 79.8483 28.9016C80.5516 29.6049 81.5054 30 82.5 30C83.4946 30 84.4484 29.6049 85.1517 28.9016C85.8549 28.1984 86.25 27.2446 86.25 26.25V22.5H97.5V37.5H22.5V22.5H33.75ZM97.5 97.5H22.5V45H97.5V97.5ZM52.5 56.25V86.25C52.5 87.2446 52.1049 88.1984 51.4016 88.9017C50.6984 89.6049 49.7446 90 48.75 90C47.7554 90 46.8016 89.6049 46.0984 88.9017C45.3951 88.1984 45 87.2446 45 86.25V62.3156L42.9281 63.3563C42.038 63.8013 41.0075 63.8746 40.0634 63.5598C39.1193 63.2451 38.3388 62.5683 37.8937 61.6781C37.4487 60.788 37.3754 59.7575 37.6902 58.8134C38.0049 57.8693 38.6817 57.0888 39.5719 56.6437L47.0719 52.8937C47.6438 52.6076 48.2794 52.4724 48.9183 52.5011C49.5572 52.5298 50.1782 52.7214 50.7221 53.0578C51.2661 53.3941 51.715 53.864 52.0262 54.4227C52.3373 54.9814 52.5005 55.6105 52.5 56.25ZM80.2313 70.5234L71.25 82.5H78.75C79.7446 82.5 80.6984 82.8951 81.4017 83.5983C82.1049 84.3016 82.5 85.2554 82.5 86.25C82.5 87.2446 82.1049 88.1984 81.4017 88.9017C80.6984 89.6049 79.7446 90 78.75 90H63.75C63.0536 90 62.3709 89.8061 61.7785 89.4399C61.1861 89.0738 60.7073 88.5499 60.3959 87.9271C60.0845 87.3042 59.9526 86.6068 60.0151 85.9132C60.0777 85.2196 60.3322 84.5571 60.75 84L74.2406 66.0141C74.5475 65.6056 74.7676 65.1386 74.8875 64.642C75.0075 64.1453 75.0246 63.6294 74.938 63.1259C74.8513 62.6224 74.6627 62.1419 74.3837 61.7139C74.1047 61.2859 73.7411 60.9194 73.3154 60.637C72.8896 60.3545 72.4106 60.162 71.9078 60.0714C71.405 59.9807 70.889 59.9937 70.3914 60.1097C69.8938 60.2256 69.4251 60.442 69.0142 60.7455C68.6032 61.0491 68.2586 61.4335 68.0016 61.875C67.7626 62.3151 67.4379 62.7028 67.0467 63.0154C66.6554 63.3279 66.2055 63.559 65.7235 63.6948C65.2416 63.8307 64.7372 63.8687 64.2404 63.8065C63.7435 63.7443 63.2641 63.5832 62.8304 63.3327C62.3968 63.0823 62.0177 62.7475 61.7156 62.3481C61.4134 61.9488 61.1943 61.493 61.0712 61.0076C60.9481 60.5222 60.9234 60.017 60.9987 59.522C61.0739 59.0269 61.2476 58.5519 61.5094 58.125C62.7481 55.9814 64.6594 54.3062 66.9469 53.3592C69.2345 52.4122 71.7705 52.2463 74.162 52.8872C76.5534 53.528 78.6667 54.9398 80.1742 56.9038C81.6817 58.8678 82.4992 61.2742 82.5 63.75C82.508 66.1957 81.7107 68.576 80.2313 70.5234Z" fill="#0D8964"/>
</svg>
