<svg width="140" height="160" viewBox="0 0 140 160" fill="none" xmlns="http://www.w3.org/2000/svg">
<path d="M131.25 130H122.5V60C122.5 57.3479 121.578 54.8043 119.937 52.929C118.296 51.0536 116.071 50 113.75 50H78.75V20C78.751 18.1892 78.3218 16.412 77.5081 14.8582C76.6944 13.3043 75.5268 12.0322 74.1299 11.1775C72.733 10.3228 71.1592 9.91762 69.5766 10.0052C67.9939 10.0929 66.4618 10.67 65.1438 11.675L21.3937 45C20.1936 45.9152 19.21 47.1553 18.5307 48.6099C17.8513 50.0646 17.4973 51.6886 17.5 53.3375V130H8.75C7.58968 130 6.47688 130.527 5.65641 131.465C4.83594 132.402 4.375 133.674 4.375 135C4.375 136.326 4.83594 137.598 5.65641 138.536C6.47688 139.473 7.58968 140 8.75 140H131.25C132.41 140 133.523 139.473 134.344 138.536C135.164 137.598 135.625 136.326 135.625 135C135.625 133.674 135.164 132.402 134.344 131.465C133.523 130.527 132.41 130 131.25 130ZM113.75 60V130H78.75V60H113.75ZM26.25 53.3375L70 20V130H26.25V53.3375ZM61.25 70V80C61.25 81.3261 60.7891 82.5979 59.9686 83.5356C59.1481 84.4733 58.0353 85 56.875 85C55.7147 85 54.6019 84.4733 53.7814 83.5356C52.9609 82.5979 52.5 81.3261 52.5 80V70C52.5 68.674 52.9609 67.4022 53.7814 66.4645C54.6019 65.5268 55.7147 65 56.875 65C58.0353 65 59.1481 65.5268 59.9686 66.4645C60.7891 67.4022 61.25 68.674 61.25 70ZM43.75 70V80C43.75 81.3261 43.2891 82.5979 42.4686 83.5356C41.6481 84.4733 40.5353 85 39.375 85C38.2147 85 37.1019 84.4733 36.2814 83.5356C35.4609 82.5979 35 81.3261 35 80V70C35 68.674 35.4609 67.4022 36.2814 66.4645C37.1019 65.5268 38.2147 65 39.375 65C40.5353 65 41.6481 65.5268 42.4686 66.4645C43.2891 67.4022 43.75 68.674 43.75 70ZM43.75 105V115C43.75 116.326 43.2891 117.598 42.4686 118.536C41.6481 119.473 40.5353 120 39.375 120C38.2147 120 37.1019 119.473 36.2814 118.536C35.4609 117.598 35 116.326 35 115V105C35 103.674 35.4609 102.402 36.2814 101.465C37.1019 100.527 38.2147 100 39.375 100C40.5353 100 41.6481 100.527 42.4686 101.465C43.2891 102.402 43.75 103.674 43.75 105ZM61.25 105V115C61.25 116.326 60.7891 117.598 59.9686 118.536C59.1481 119.473 58.0353 120 56.875 120C55.7147 120 54.6019 119.473 53.7814 118.536C52.9609 117.598 52.5 116.326 52.5 115V105C52.5 103.674 52.9609 102.402 53.7814 101.465C54.6019 100.527 55.7147 100 56.875 100C58.0353 100 59.1481 100.527 59.9686 101.465C60.7891 102.402 61.25 103.674 61.25 105Z" fill="#0D8964"/>
</svg>
