<svg width="120" height="120" viewBox="0 0 120 120" fill="none" xmlns="http://www.w3.org/2000/svg">
<g clip-path="url(#clip0_309_2)">
<path d="M120 106.667C120 110.203 118.595 113.594 116.095 116.095C113.594 118.595 110.203 120 106.667 120H13.3333C9.79711 120 6.40573 118.595 3.90524 116.095C1.40476 113.594 0 110.203 0 106.667V30C0 26.4638 1.40476 23.0724 3.90524 20.5719C6.40573 18.0714 9.79711 16.6667 13.3333 16.6667H106.667C110.203 16.6667 113.594 18.0714 116.095 20.5719C118.595 23.0724 120 26.4638 120 30V106.667Z" fill="#E0E7EC"/>
<path d="M78.857 63.7333H59.567C55.5003 63.7333 53.9903 61.0967 53.9903 58.5333C53.9903 55.8967 55.4203 53.3333 59.567 53.3333H86.847C90.6937 53.3333 92.2737 56.8 92.2737 58.76C92.2737 60.2667 91.4437 61.85 90.5403 63.7333L71.8503 101.717C69.7403 105.937 68.9103 107.44 65.5203 107.44C61.3737 107.44 59.2637 104.277 59.2637 102.09C59.2637 101.187 59.4903 100.51 60.017 99.4533L78.857 63.7333ZM36.297 63.3333H34.6303C31.0137 63.3333 29.5037 60.8967 29.5037 58.3333C29.5037 55.6933 31.387 53.3333 34.6303 53.3333H41.347C44.587 53.3333 46.397 55.67 46.397 58.6833V101.567C46.397 105.333 44.537 107.443 41.297 107.443C38.057 107.443 36.297 105.333 36.297 101.567V63.3333Z" fill="#66757F"/>
<path d="M113.333 0H102.41C102.983 0.983333 103.333 2.11333 103.333 3.33333C103.333 5.10144 102.631 6.79714 101.381 8.04738C100.13 9.29762 98.4348 10 96.6667 10C94.8986 10 93.2029 9.29762 91.9526 8.04738C90.7024 6.79714 90 5.10144 90 3.33333C90 2.11333 90.35 0.983333 90.9233 0H29.0767C29.65 0.983333 30 2.11333 30 3.33333C30 5.10144 29.2976 6.79714 28.0474 8.04738C26.7971 9.29762 25.1014 10 23.3333 10C21.5652 10 19.8695 9.29762 18.6193 8.04738C17.369 6.79714 16.6667 5.10144 16.6667 3.33333C16.6667 2.11333 17.0167 0.983333 17.59 0H6.66667C4.89856 0 3.20286 0.702379 1.95262 1.95262C0.702379 3.20286 0 4.89856 0 6.66667L0 43.3333H120V6.66667C120 4.89856 119.298 3.20286 118.047 1.95262C116.797 0.702379 115.101 0 113.333 0Z" fill="#DD2F45"/>
<path d="M43.9404 15.3467C43.9404 13.68 45.0071 12.7467 46.4404 12.7467C47.8704 12.7467 48.9371 13.68 48.9371 15.3467V32.07H54.8671C56.5671 32.07 57.3004 33.3367 57.2671 34.47C57.2318 35.0766 56.9613 35.6454 56.5131 36.0556C56.0649 36.4658 55.4744 36.6851 54.8671 36.6667H46.5404C44.9071 36.6667 43.9404 35.6033 43.9404 33.9367V15.3467ZM20.9071 15.3467C20.9071 13.68 21.9737 12.7467 23.4071 12.7467C24.8404 12.7467 25.9071 13.68 25.9071 15.3467V26.9733C25.9071 30.04 27.8704 32.47 31.0371 32.47C34.0671 32.47 36.1337 29.9067 36.1337 26.9733V15.3467C36.1337 13.68 37.1971 12.7467 38.6304 12.7467C40.0637 12.7467 41.1304 13.68 41.1304 15.3467V27.24C41.1304 32.8367 36.5304 37.07 31.0371 37.07C25.4737 37.07 20.9071 32.9033 20.9071 27.24V15.3467ZM18.3004 30.0033C18.3004 35.6 14.7371 37.0667 11.7037 37.0667C9.40706 37.0667 5.57373 36.1667 5.57373 33.2667C5.57373 32.37 6.3404 31.2367 7.4404 31.2367C8.77373 31.2367 9.9404 32.47 11.4371 32.47C13.3037 32.47 13.3037 30.7367 13.3037 29.67V15.3467C13.3037 13.68 14.3704 12.7467 15.8004 12.7467C17.2371 12.7467 18.3004 13.68 18.3004 15.3467V30.0033Z" fill="#F5F8FA"/>
<path d="M106.667 33.3333C106.667 34.2174 107.018 35.0652 107.643 35.6904C108.268 36.3155 109.116 36.6667 110 36.6667C110.884 36.6667 111.732 36.3155 112.357 35.6904C112.982 35.0652 113.333 34.2174 113.333 33.3333C113.333 32.4493 112.982 31.6014 112.357 30.9763C111.732 30.3512 110.884 30 110 30C109.116 30 108.268 30.3512 107.643 30.9763C107.018 31.6014 106.667 32.4493 106.667 33.3333ZM106.667 23.3333C106.667 24.2174 107.018 25.0652 107.643 25.6904C108.268 26.3155 109.116 26.6667 110 26.6667C110.884 26.6667 111.732 26.3155 112.357 25.6904C112.982 25.0652 113.333 24.2174 113.333 23.3333C113.333 22.4493 112.982 21.6014 112.357 20.9763C111.732 20.3512 110.884 20 110 20C109.116 20 108.268 20.3512 107.643 20.9763C107.018 21.6014 106.667 22.4493 106.667 23.3333ZM96.6667 33.3333C96.6667 34.2174 97.0179 35.0652 97.6431 35.6904C98.2682 36.3155 99.116 36.6667 100 36.6667C100.884 36.6667 101.732 36.3155 102.357 35.6904C102.982 35.0652 103.333 34.2174 103.333 33.3333C103.333 32.4493 102.982 31.6014 102.357 30.9763C101.732 30.3512 100.884 30 100 30C99.116 30 98.2682 30.3512 97.6431 30.9763C97.0179 31.6014 96.6667 32.4493 96.6667 33.3333ZM96.6667 23.3333C96.6667 24.2174 97.0179 25.0652 97.6431 25.6904C98.2682 26.3155 99.116 26.6667 100 26.6667C100.884 26.6667 101.732 26.3155 102.357 25.6904C102.982 25.0652 103.333 24.2174 103.333 23.3333C103.333 22.4493 102.982 21.6014 102.357 20.9763C101.732 20.3512 100.884 20 100 20C99.116 20 98.2682 20.3512 97.6431 20.9763C97.0179 21.6014 96.6667 22.4493 96.6667 23.3333ZM86.6667 33.3333C86.6667 34.2174 87.0179 35.0652 87.6431 35.6904C88.2682 36.3155 89.116 36.6667 90.0001 36.6667C90.8841 36.6667 91.732 36.3155 92.3571 35.6904C92.9822 35.0652 93.3334 34.2174 93.3334 33.3333C93.3334 32.4493 92.9822 31.6014 92.3571 30.9763C91.732 30.3512 90.8841 30 90.0001 30C89.116 30 88.2682 30.3512 87.6431 30.9763C87.0179 31.6014 86.6667 32.4493 86.6667 33.3333ZM86.6667 23.3333C86.6667 24.2174 87.0179 25.0652 87.6431 25.6904C88.2682 26.3155 89.116 26.6667 90.0001 26.6667C90.8841 26.6667 91.732 26.3155 92.3571 25.6904C92.9822 25.0652 93.3334 24.2174 93.3334 23.3333C93.3334 22.4493 92.9822 21.6014 92.3571 20.9763C91.732 20.3512 90.8841 20 90.0001 20C89.116 20 88.2682 20.3512 87.6431 20.9763C87.0179 21.6014 86.6667 22.4493 86.6667 23.3333ZM76.6667 23.3333C76.6667 24.2174 77.0179 25.0652 77.6431 25.6904C78.2682 26.3155 79.116 26.6667 80.0001 26.6667C80.8841 26.6667 81.732 26.3155 82.3571 25.6904C82.9822 25.0652 83.3334 24.2174 83.3334 23.3333C83.3334 22.4493 82.9822 21.6014 82.3571 20.9763C81.732 20.3512 80.8841 20 80.0001 20C79.116 20 78.2682 20.3512 77.6431 20.9763C77.0179 21.6014 76.6667 22.4493 76.6667 23.3333ZM76.6667 33.3333C76.6667 34.2174 77.0179 35.0652 77.6431 35.6904C78.2682 36.3155 79.116 36.6667 80.0001 36.6667C80.8841 36.6667 81.732 36.3155 82.3571 35.6904C82.9822 35.0652 83.3334 34.2174 83.3334 33.3333C83.3334 32.4493 82.9822 31.6014 82.3571 30.9763C81.732 30.3512 80.8841 30 80.0001 30C79.116 30 78.2682 30.3512 77.6431 30.9763C77.0179 31.6014 76.6667 32.4493 76.6667 33.3333Z" fill="#F4ABBA"/>
</g>
<defs>
<clipPath id="clip0_309_2">
<rect width="120" height="120" fill="white"/>
</clipPath>
</defs>
</svg>
