<svg width="120" height="100" viewBox="0 0 120 100" fill="none" xmlns="http://www.w3.org/2000/svg">
<path d="M110 31.25V81.25C110 82.9688 108.5 84.375 106.667 84.375H66.6667C66.6667 75.7422 59.2083 68.75 50 68.75H36.6667C27.4583 68.75 20 75.7422 20 84.375H13.3333C11.5 84.375 10 82.9688 10 81.25V31.25H110ZM13.3333 6.25C5.97917 6.25 0 11.8555 0 18.75V81.25C0 88.1445 5.97917 93.75 13.3333 93.75H106.667C114.021 93.75 120 88.1445 120 81.25V18.75C120 11.8555 114.021 6.25 106.667 6.25H13.3333ZM56.6667 50C56.6667 46.6848 55.2619 43.5054 52.7614 41.1612C50.2609 38.817 46.8696 37.5 43.3333 37.5C39.7971 37.5 36.4057 38.817 33.9052 41.1612C31.4048 43.5054 30 46.6848 30 50C30 53.3152 31.4048 56.4946 33.9052 58.8388C36.4057 61.183 39.7971 62.5 43.3333 62.5C46.8696 62.5 50.2609 61.183 52.7614 58.8388C55.2619 56.4946 56.6667 53.3152 56.6667 50ZM78.3333 40.625C75.5625 40.625 73.3333 42.7148 73.3333 45.3125C73.3333 47.9102 75.5625 50 78.3333 50H95C97.7708 50 100 47.9102 100 45.3125C100 42.7148 97.7708 40.625 95 40.625H78.3333ZM78.3333 59.375C75.5625 59.375 73.3333 61.4648 73.3333 64.0625C73.3333 66.6602 75.5625 68.75 78.3333 68.75H95C97.7708 68.75 100 66.6602 100 64.0625C100 61.4648 97.7708 59.375 95 59.375H78.3333Z" fill="#0D8964"/>
</svg>
