<svg width="94" height="94" viewBox="0 0 94 94" fill="none" xmlns="http://www.w3.org/2000/svg">
<g clip-path="url(#clip0_309_43)">
<path d="M11.75 20.6389L20.8929 29.5278L39.1786 11.75" stroke="#B4ACBC" stroke-width="7.83333" stroke-linecap="round" stroke-linejoin="round"/>
<path d="M11.75 51.75L20.8929 60.6389L39.1786 42.8611" stroke="#B4ACBC" stroke-width="7.83333" stroke-linecap="round" stroke-linejoin="round"/>
<path d="M11.75 82.8611L20.8929 91.75L39.1786 73.9722" stroke="#B4ACBC" stroke-width="7.83333" stroke-linecap="round" stroke-linejoin="round"/>
<path d="M84.8929 13.9722H57.4643C53.6772 13.9722 50.6072 16.957 50.6072 20.6389C50.6072 24.3208 53.6772 27.3056 57.4643 27.3056H84.8929C88.68 27.3056 91.75 24.3208 91.75 20.6389C91.75 16.957 88.68 13.9722 84.8929 13.9722Z" stroke="#B4ACBC" stroke-width="3.91667" stroke-linecap="round" stroke-linejoin="round"/>
<path d="M84.8929 45.0833H57.4643C53.6772 45.0833 50.6072 48.0681 50.6072 51.75C50.6072 55.4319 53.6772 58.4167 57.4643 58.4167H84.8929C88.68 58.4167 91.75 55.4319 91.75 51.75C91.75 48.0681 88.68 45.0833 84.8929 45.0833Z" stroke="#B4ACBC" stroke-width="3.91667" stroke-linecap="round" stroke-linejoin="round"/>
<path d="M84.8929 76.1944H57.4643C53.6772 76.1944 50.6072 79.1792 50.6072 82.8611C50.6072 86.543 53.6772 89.5278 57.4643 89.5278H84.8929C88.68 89.5278 91.75 86.543 91.75 82.8611C91.75 79.1792 88.68 76.1944 84.8929 76.1944Z" stroke="#B4ACBC" stroke-width="3.91667" stroke-linecap="round" stroke-linejoin="round"/>
</g>
<defs>
<clipPath id="clip0_309_43">
<rect width="94" height="94" fill="white"/>
</clipPath>
</defs>
</svg>
