<svg width="84" height="84" viewBox="0 0 84 84" fill="none" xmlns="http://www.w3.org/2000/svg">
<mask id="mask0_309_36" style="mask-type:luminance" maskUnits="userSpaceOnUse" x="3" y="3" width="78" height="78">
<path d="M42 77C46.5972 77.006 51.1502 76.1033 55.3973 74.344C59.6445 72.5847 63.5021 70.0034 66.7485 66.7485C70.0035 63.5021 72.5848 59.6445 74.3441 55.3973C76.1034 51.1501 77.006 46.5971 77 42C77.0059 37.4029 76.1032 32.8499 74.3439 28.6027C72.5847 24.3556 70.0034 20.4979 66.7485 17.2515C63.5021 13.9965 59.6445 11.4152 55.3973 9.65595C51.1502 7.89665 46.5972 6.99404 42 7C37.4029 6.99414 32.8499 7.89679 28.6028 9.65608C24.3556 11.4154 20.498 13.9966 17.2515 17.2515C13.9967 20.4979 11.4154 24.3556 9.65611 28.6027C7.89682 32.8499 6.99417 37.4029 7.00003 42C6.99407 46.5971 7.89668 51.1501 9.65598 55.3973C11.4153 59.6445 13.9966 63.5021 17.2515 66.7485C20.498 70.0034 24.3556 72.5846 28.6028 74.3439C32.8499 76.1032 37.4029 77.0059 42 77Z" fill="white" stroke="white" stroke-width="7" stroke-linejoin="round"/>
<path d="M28 42L38.5 52.5L59.5 31.5" stroke="black" stroke-width="7" stroke-linecap="round" stroke-linejoin="round"/>
</mask>
<g mask="url(#mask0_309_36)">
<path d="M0 0H84V84H0V0Z" fill="#00FA99"/>
</g>
</svg>
