<svg width="80" height="80" viewBox="0 0 80 80" fill="none" xmlns="http://www.w3.org/2000/svg">
<g clip-path="url(#clip0_222_7)">
<path d="M11.7198 68.28C7.89942 64.5901 4.85213 60.1763 2.75577 55.2961C0.659413 50.416 -0.444036 45.1672 -0.490189 39.856C-0.536342 34.5448 0.475726 29.2776 2.48696 24.3618C4.4982 19.4459 7.46832 14.9799 11.224 11.2242C14.9797 7.46844 19.4458 4.49832 24.3617 2.48708C29.2775 0.475848 34.5447 -0.53622 39.8559 -0.490067C45.167 -0.443914 50.4158 0.659535 55.296 2.75589C60.1762 4.85225 64.59 7.89954 68.2798 11.72C75.5662 19.264 79.5979 29.3681 79.5068 39.856C79.4157 50.3439 75.2089 60.3764 67.7926 67.7927C60.3762 75.209 50.3438 79.4158 39.8559 79.5069C29.368 79.598 19.2639 75.5663 11.7198 68.28ZM45.5998 40L56.9198 28.68L51.2798 23.04L39.9998 34.36L28.6798 23.04L23.0398 28.68L34.3598 40L23.0398 51.32L28.6798 56.9599L39.9998 45.6399L51.3198 56.9599L56.9598 51.32L45.6398 40H45.5998Z" fill="#F5344B"/>
</g>
<defs>
<clipPath id="clip0_222_7">
<rect width="80" height="80" fill="white"/>
</clipPath>
</defs>
</svg>
