<svg width="80" height="80" viewBox="0 0 80 80" fill="none" xmlns="http://www.w3.org/2000/svg">
<path d="M14.8 14.8C15.2638 14.3356 15.8145 13.9671 16.4208 13.7157C17.0271 13.4644 17.677 13.335 18.3333 13.335C18.9897 13.335 19.6395 13.4644 20.2458 13.7157C20.8521 13.9671 21.4029 14.3356 21.8667 14.8L40 32.9267L58.1333 14.8C58.5973 14.336 59.1482 13.9679 59.7544 13.7168C60.3607 13.4657 61.0105 13.3364 61.6667 13.3364C62.3229 13.3364 62.9726 13.4657 63.5789 13.7168C64.1851 13.9679 64.736 14.336 65.2 14.8C65.664 15.264 66.0321 15.8148 66.2832 16.4211C66.5343 17.0273 66.6636 17.6771 66.6636 18.3333C66.6636 18.9895 66.5343 19.6393 66.2832 20.2456C66.0321 20.8518 65.664 21.4027 65.2 21.8667L47.0733 40L65.2 58.1333C66.1371 59.0704 66.6636 60.3414 66.6636 61.6667C66.6636 62.9919 66.1371 64.2629 65.2 65.2C64.2629 66.1371 62.9919 66.6636 61.6667 66.6636C60.3414 66.6636 59.0704 66.1371 58.1333 65.2L40 47.0733L21.8667 65.2C20.9296 66.1371 19.6586 66.6636 18.3333 66.6636C17.0081 66.6636 15.7371 66.1371 14.8 65.2C13.8629 64.2629 13.3364 62.9919 13.3364 61.6667C13.3364 60.3414 13.8629 59.0704 14.8 58.1333L32.9267 40L14.8 21.8667C14.3356 21.4029 13.9671 20.8521 13.7157 20.2458C13.4644 19.6395 13.335 18.9897 13.335 18.3333C13.335 17.677 13.4644 17.0271 13.7157 16.4208C13.9671 15.8145 14.3356 15.2638 14.8 14.8Z" fill="#F23501"/>
</svg>
