<svg width="120" height="100" viewBox="0 0 120 100" fill="none" xmlns="http://www.w3.org/2000/svg">
<path d="M18.75 18.75C12.5813 18.75 7.5 22.9844 7.5 28.125V71.875C7.5 77.0156 12.5813 81.25 18.75 81.25H101.25C107.419 81.25 112.5 77.0156 112.5 71.875V28.125C112.5 22.9844 107.419 18.75 101.25 18.75H18.75ZM18.75 25H101.25C103.372 25 105 26.3563 105 28.125V71.875C105 73.6437 103.372 75 101.25 75H18.75C16.6275 75 15 73.6437 15 71.875V28.125C15 26.3563 16.6275 25 18.75 25ZM41.25 31.25C33 31.25 26.25 36.875 26.25 43.75C26.25 47.2281 28.0387 50.3656 30.8212 52.6375C28.2687 54.0729 26.1761 56.0067 24.7257 58.2703C23.2754 60.534 22.5113 63.0589 22.5 65.625H30C30 60.4125 34.995 56.25 41.25 56.25C47.505 56.25 52.5 60.4125 52.5 65.625H60C59.9887 63.0589 59.2246 60.534 57.7743 58.2703C56.3239 56.0067 54.2313 54.0729 51.6788 52.6375C54.4613 50.3656 56.25 47.2312 56.25 43.75C56.25 36.875 49.5 31.25 41.25 31.25ZM67.5 34.375V40.625H97.5V34.375H67.5ZM41.25 37.5C45.4387 37.5 48.75 40.2594 48.75 43.75C48.75 47.2406 45.4387 50 41.25 50C37.0613 50 33.75 47.2406 33.75 43.75C33.75 40.2594 37.0613 37.5 41.25 37.5ZM67.5 46.875V53.125H97.5V46.875H67.5ZM67.5 59.375V65.625H86.25V59.375H67.5Z" fill="#0D8964"/>
</svg>
