<svg width="110" height="110" viewBox="0 0 110 110" fill="none" xmlns="http://www.w3.org/2000/svg">
<g filter="url(#filter0_d_411_14)">
<path d="M77.95 8.5H40.55C25.0804 8.5 12.5 21.0804 12.5 36.55V97.325C12.5 98.5649 12.9925 99.754 13.8693 100.631C14.746 101.507 15.9351 102 17.175 102H77.95C93.4196 102 106 89.4196 106 73.95V36.55C106 21.0804 93.4196 8.5 77.95 8.5ZM45.2203 78.625H35.875V69.2797L61.7278 43.4643L71.0731 52.8097L45.2203 78.625ZM75.4816 48.4011L66.1363 39.0558L73.261 31.9358L82.6063 41.2811L75.4816 48.4011Z" fill="#0D8964"/>
</g>
<defs>
<filter id="filter0_d_411_14" x="0" y="0" width="110" height="110" filterUnits="userSpaceOnUse" color-interpolation-filters="sRGB">
<feFlood flood-opacity="0" result="BackgroundImageFix"/>
<feColorMatrix in="SourceAlpha" type="matrix" values="0 0 0 0 0 0 0 0 0 0 0 0 0 0 0 0 0 0 127 0" result="hardAlpha"/>
<feOffset dy="4"/>
<feGaussianBlur stdDeviation="2"/>
<feComposite in2="hardAlpha" operator="out"/>
<feColorMatrix type="matrix" values="0 0 0 0 0 0 0 0 0 0 0 0 0 0 0 0 0 0 0.25 0"/>
<feBlend mode="normal" in2="BackgroundImageFix" result="effect1_dropShadow_411_14"/>
<feBlend mode="normal" in="SourceGraphic" in2="effect1_dropShadow_411_14" result="shape"/>
</filter>
</defs>
</svg>
