<svg width="110" height="70" viewBox="0 0 110 70" fill="none" xmlns="http://www.w3.org/2000/svg">
<path d="M75.5548 35.1476L103.748 11.5984V58.4281L75.5548 35.1476ZM39.2258 39.1357L49.1262 47.3982C50.68 48.6673 52.7059 49.4341 54.9198 49.4341H54.9977H55.0573C57.2757 49.4341 59.3016 48.6629 60.8738 47.385L60.86 47.3938L70.7604 39.1313L100.856 63.9805H9.14413L39.2258 39.1357ZM9.10288 6.01511H100.911L56.8128 42.8373C56.317 43.2143 55.7032 43.4193 55.071 43.4189H55.0069H54.9473C54.3129 43.4197 53.6971 43.213 53.201 42.8329L53.2055 42.8373L9.10288 6.01511ZM6.25651 11.594L34.4452 35.1432L6.25651 58.4104V11.594ZM105.261 0.837268C104.161 0.308467 102.868 0 101.498 0H8.52077C7.19229 0.000305096 5.88206 0.297497 4.69353 0.868115L4.74395 0.846081C3.3211 1.52079 2.12285 2.56459 1.28455 3.85956C0.446255 5.15454 0.00131707 6.64909 0 8.17438L0 61.8124C0.00242653 63.9832 0.900444 66.0644 2.49701 67.5993C4.09358 69.1343 6.2583 69.9977 8.51619 70H101.484C103.742 69.9977 105.906 69.1343 107.503 67.5993C109.1 66.0644 109.998 63.9832 110 61.8124V8.17438C110 4.97073 108.079 2.19452 105.284 0.859302L105.233 0.837268H105.261Z" fill="#0D8964"/>
</svg>
