<svg width="119" height="119" viewBox="0 0 119 119" fill="none" xmlns="http://www.w3.org/2000/svg">
<path d="M59.7188 115.719C90.6467 115.719 115.719 90.6467 115.719 59.7188C115.719 28.7908 90.6467 3.71875 59.7188 3.71875C28.7908 3.71875 3.71875 28.7908 3.71875 59.7188C3.71875 90.6467 28.7908 115.719 59.7188 115.719Z" fill="#DD2F45"/>
<path d="M50.2031 51.6906H68.7969V96.3156H50.2031V51.6906Z" fill="white"/>
<path d="M59.5 41.2781C64.6345 41.2781 68.7969 37.1158 68.7969 31.9812C68.7969 26.8467 64.6345 22.6844 59.5 22.6844C54.3655 22.6844 50.2031 26.8467 50.2031 31.9812C50.2031 37.1158 54.3655 41.2781 59.5 41.2781Z" fill="white"/>
</svg>
