<svg width="120" height="100" viewBox="0 0 120 100" fill="none" xmlns="http://www.w3.org/2000/svg">
<path d="M59.9999 3.25003C49.3265 2.91121 38.926 6.10631 31.0704 12.1373C23.2148 18.1684 18.5428 26.5451 18.075 35.4375C18.075 66.6875 47.175 89.25 56.8499 95.8125C57.7367 96.4221 58.8504 96.7555 59.9999 96.7555C61.1495 96.7555 62.2632 96.4221 63.15 95.8125C72.8249 89.25 101.925 66.875 101.925 35.4375C101.457 26.5451 96.785 18.1684 88.9295 12.1373C81.0739 6.10631 70.6734 2.91121 59.9999 3.25003ZM59.9999 87.5C53.0306 82.3971 46.8347 76.6042 41.5499 70.25C32.7073 60.1124 27.7881 47.9672 27.45 35.4375C27.915 28.6166 31.5983 22.2257 37.6962 17.6593C43.7942 13.0929 51.8119 10.7215 59.9999 11.0625C68.188 10.7215 76.2057 13.0929 82.3037 17.6593C88.4016 22.2257 92.0849 28.6166 92.5499 35.4375C92.5499 60.9375 70.3499 80.1875 59.9999 87.5Z" fill="#0D8964"/>
<path d="M60 15.875C57.2923 15.7831 54.5897 16.14 52.0488 16.925C49.508 17.7101 47.1794 18.9076 45.1981 20.4482C43.2168 21.9889 41.6221 23.8419 40.5067 25.9C39.3912 27.9581 38.7771 30.1802 38.7 32.4375C38.787 34.6922 39.4078 36.9104 40.5266 38.9646C41.6455 41.0187 43.2403 42.8685 45.2196 44.4075C47.1988 45.9465 49.5234 47.1445 52.0599 47.9326C54.5964 48.7208 57.2947 49.0835 60 49C65.4455 49.135 70.734 47.469 74.7107 44.3659C78.6874 41.2628 81.0293 36.9745 81.225 32.4375C81.1378 30.1882 80.5194 27.9753 79.4053 25.9253C78.2911 23.8753 76.7031 22.0284 74.7318 20.4902C72.7606 18.952 70.4449 17.7527 67.9171 16.9608C65.3893 16.1688 62.699 15.7999 60 15.875ZM60 41.1875C57.0474 41.3241 54.1502 40.4798 51.9431 38.8398C49.7361 37.1997 48.399 34.8975 48.225 32.4375C48.399 29.9775 49.7361 27.6753 51.9431 26.0352C54.1502 24.3951 57.0474 23.5509 60 23.6875C62.9602 23.5505 65.8657 24.3928 68.0847 26.0313C70.3037 27.6698 71.6569 29.9721 71.85 32.4375C71.6569 34.9029 70.3037 37.2051 68.0847 38.8437C65.8657 40.4822 62.9602 41.3245 60 41.1875Z" fill="#0D8964"/>
</svg>
