<svg width="80" height="80" viewBox="0 0 80 80" fill="none" xmlns="http://www.w3.org/2000/svg">
<path fill-rule="evenodd" clip-rule="evenodd" d="M8 32C8 30.9391 8.42143 29.9217 9.17157 29.1716C9.92172 28.4214 10.9391 28 12 28H53.232C54.2929 28 55.3103 28.4214 56.0604 29.1716C56.8106 29.9217 57.232 30.9391 57.232 32C57.232 33.0609 56.8106 34.0783 56.0604 34.8284C55.3103 35.5786 54.2929 36 53.232 36H12C10.9391 36 9.92172 35.5786 9.17157 34.8284C8.42143 34.0783 8 33.0609 8 32ZM8 16C8 14.9391 8.42143 13.9217 9.17157 13.1716C9.92172 12.4214 10.9391 12 12 12H68C69.0609 12 70.0783 12.4214 70.8284 13.1716C71.5786 13.9217 72 14.9391 72 16C72 17.0609 71.5786 18.0783 70.8284 18.8284C70.0783 19.5786 69.0609 20 68 20H12C10.9391 20 9.92172 19.5786 9.17157 18.8284C8.42143 18.0783 8 17.0609 8 16ZM8 48C8 46.9391 8.42143 45.9217 9.17157 45.1716C9.92172 44.4214 10.9391 44 12 44H68C69.0609 44 70.0783 44.4214 70.8284 45.1716C71.5786 45.9217 72 46.9391 72 48C72 49.0609 71.5786 50.0783 70.8284 50.8284C70.0783 51.5786 69.0609 52 68 52H12C10.9391 52 9.92172 51.5786 9.17157 50.8284C8.42143 50.0783 8 49.0609 8 48ZM8 64C8 62.9391 8.42143 61.9217 9.17157 61.1716C9.92172 60.4214 10.9391 60 12 60H53.232C54.2929 60 55.3103 60.4214 56.0604 61.1716C56.8106 61.9217 57.232 62.9391 57.232 64C57.232 65.0609 56.8106 66.0783 56.0604 66.8284C55.3103 67.5786 54.2929 68 53.232 68H12C10.9391 68 9.92172 67.5786 9.17157 66.8284C8.42143 66.0783 8 65.0609 8 64Z" fill="#0D8964"/>
</svg>
