<svg width="95" height="118" viewBox="0 0 95 118" fill="none" xmlns="http://www.w3.org/2000/svg">
<g clip-path="url(#clip0_306_58)">
<path d="M41.63 95.1221C41.63 94.7096 41.3376 93.6223 40.7528 91.86C40.1681 90.0977 39.4709 88.0917 38.6612 85.842C37.8516 83.5923 37.4018 82.2987 37.3118 81.9612C37.2668 81.8112 37.1544 81.3144 36.9744 80.4708C36.7945 79.6271 36.6033 78.9522 36.4009 78.446C36.1985 77.9398 35.8949 77.5368 35.4901 77.2368C34.8153 76.7119 33.6683 76.4494 32.049 76.4494C31.0144 76.4494 29.4401 76.5525 27.326 76.7587C25.2119 76.965 23.6151 77.0681 22.5355 77.0681C21.0062 77.0681 19.9491 76.8619 19.3643 76.4494C19.0945 76.2619 18.8471 75.9713 18.6222 75.5776C18.3973 75.1839 18.2286 74.809 18.1161 74.4528C18.0037 74.0966 17.8575 73.6466 17.6776 73.1029C17.4976 72.5593 17.3852 72.2124 17.3402 72.0625C15.6759 67.2631 14.8438 62.4824 14.8438 57.7205C14.8438 52.9586 15.6759 48.1779 17.3402 43.3785C17.3852 43.2286 17.4976 42.8817 17.6776 42.338C17.8575 41.7944 18.0037 41.3444 18.1161 40.9882C18.2286 40.632 18.3973 40.2571 18.6222 39.8634C18.8471 39.4697 19.0945 39.1791 19.3643 38.9916C19.9491 38.5791 21.0062 38.3729 22.5355 38.3729C23.6151 38.3729 25.2119 38.476 27.326 38.6823C29.4401 38.8885 31.0144 38.9916 32.049 38.9916C33.6683 38.9916 34.8153 38.7291 35.4901 38.2042C35.8949 37.9042 36.1985 37.5012 36.4009 36.995C36.6033 36.4888 36.7945 35.8139 36.9744 34.9702C37.1544 34.1266 37.2668 33.6298 37.3118 33.4798C37.4018 33.1423 37.8516 31.8487 38.6612 29.599C39.4709 27.3493 40.1681 25.3433 40.7528 23.581C41.3376 21.8187 41.63 20.7314 41.63 20.3189C41.63 19.494 40.6516 18.5098 38.695 17.3662C36.7383 16.2226 35.0402 15.4258 33.6009 14.9758C32.7012 14.6759 31.6892 14.5259 30.5646 14.5259C29.0353 14.5259 26.8312 14.8634 23.9524 15.5383C21.3885 16.1757 19.2182 16.935 17.4414 17.8161C15.6647 18.6973 14.0678 19.9346 12.6509 21.5281C11.234 23.1217 10.1995 24.434 9.54723 25.4652C8.89501 26.4963 7.87169 28.2679 6.47727 30.7801C6.20739 31.2301 6.00497 31.5863 5.87003 31.8487C3.66596 35.8607 2.1366 39.9102 1.28196 43.9972C0.42732 48.0842 0 52.6586 0 57.7205C0 62.7824 0.42732 67.3568 1.28196 71.4438C2.1366 75.5308 3.66596 79.5803 5.87003 83.5923C8.38897 88.1667 10.2557 91.1851 11.4702 92.6474C14.304 96.0595 18.3298 98.4404 23.5476 99.7902L23.9524 99.9027C26.8312 100.578 29.0353 100.915 30.5646 100.915C31.6892 100.915 32.7012 100.765 33.6009 100.465C35.0402 100.015 36.7383 99.2184 38.695 98.0748C40.6516 96.9312 41.63 95.947 41.63 95.1221ZM52.358 43.7722C51.1884 43.7722 50.1764 43.416 49.3217 42.7036C48.4671 41.9912 48.0398 41.1382 48.0398 40.1446C48.0398 39.1509 48.4671 38.2979 49.3217 37.5855C50.986 36.1982 51.8182 34.5109 51.8182 32.5236C51.8182 30.5739 50.986 28.8679 49.3217 27.4055C48.4671 26.6931 48.0398 25.8495 48.0398 24.8746C48.0398 23.8997 48.4671 23.0561 49.3217 22.3437C50.1764 21.6313 51.1884 21.2751 52.358 21.2751C53.5275 21.2751 54.5395 21.6313 55.3942 22.3437C58.7678 25.1558 60.4545 28.5491 60.4545 32.5236C60.4545 36.4982 58.7678 39.8915 55.3942 42.7036C54.4496 43.416 53.4375 43.7722 52.358 43.7722ZM64.5703 53.9522C63.3558 53.9522 62.3438 53.596 61.5341 52.8836C60.6795 52.1712 60.2521 51.3275 60.2521 50.3527C60.2521 49.3778 60.6795 48.5341 61.5341 47.8217C66.572 43.5473 69.0909 38.4479 69.0909 32.5236C69.0909 26.5994 66.572 21.5 61.5341 17.2256C60.6795 16.5131 60.2521 15.6695 60.2521 14.6946C60.2521 13.7197 60.6795 12.8761 61.5341 12.1637C62.3887 11.4513 63.4008 11.0951 64.5703 11.0951C65.7398 11.0951 66.7519 11.4513 67.6065 12.1637C74.3537 17.788 77.7273 24.5746 77.7273 32.5236C77.7273 40.4727 74.3537 47.2593 67.6065 52.8836C66.7969 53.596 65.7848 53.9522 64.5703 53.9522ZM76.7827 64.1322C75.5682 64.1322 74.5561 63.776 73.7465 63.0636C72.8918 62.3512 72.4645 61.5075 72.4645 60.5326C72.4645 59.5578 72.8918 58.7141 73.7465 58.0017C77.7947 54.5896 80.9097 50.6901 83.0913 46.3032C85.2729 41.9162 86.3636 37.323 86.3636 32.5236C86.3636 27.7242 85.2729 23.1311 83.0913 18.7441C80.9097 14.3572 77.7947 10.4577 73.7465 7.04558C72.8918 6.33317 72.4645 5.48953 72.4645 4.51465C72.4645 3.53977 72.8918 2.69613 73.7465 1.98372C74.6011 1.27131 75.6132 0.9151 76.7827 0.9151C77.9522 0.9151 78.9643 1.27131 79.8189 1.98372C84.7218 6.07071 88.4778 10.7389 91.0867 15.9882C93.6956 21.2376 95 26.7494 95 32.5236C95 38.2979 93.6956 43.8097 91.0867 49.0591C88.4778 54.3084 84.7218 58.9766 79.8189 63.0636C79.0092 63.776 77.9972 64.1322 76.7827 64.1322Z" fill="#0D8964"/>
</g>
<defs>
<clipPath id="clip0_306_58">
<rect width="95" height="117.137" fill="white"/>
</clipPath>
</defs>
</svg>
