<svg width="100" height="100" viewBox="0 0 100 100" fill="none" xmlns="http://www.w3.org/2000/svg">
<path fill-rule="evenodd" clip-rule="evenodd" d="M45.1479 14.1667C46.9501 13.0751 49.0169 12.498 51.1239 12.498C53.2309 12.498 55.2977 13.0751 57.1 14.1667L61.3437 16.7625C67.2979 20.4021 74.0791 21.2125 80.8916 22.0292C83.0937 22.2937 85.2979 22.5562 87.4791 22.9167C87.4791 22.9167 87.527 26.7375 87.477 28.4708L87.0416 43.3687C86.6666 56.1458 80.9854 68.2604 71.2395 77.0646C66.6416 81.2167 61.8854 84.9687 56.4208 88.0854C54.8104 88.9965 53.0048 89.5074 51.1558 89.5752C49.3068 89.643 47.4686 89.2657 45.7958 88.475C39.4854 85.475 33.8979 81.6708 28.7958 77.0646C19.05 68.2604 13.3687 56.1458 12.9958 43.3687L12.5625 28.5187C12.5104 26.7583 12.5625 22.9167 12.5625 22.9167C14.3333 22.7083 16.1375 22.5354 17.9562 22.3625C25.9833 21.6 34.277 20.8125 41.0812 16.6542L45.15 14.1667H45.1479ZM45.8333 45.8333V31.25H54.1666V45.8333H68.75V54.1666H54.1666V68.75H45.8333V54.1666H31.25V45.8333H45.8333Z" fill="#097555"/>
</svg>
