<svg width="120" height="120" viewBox="0 0 120 120" fill="none" xmlns="http://www.w3.org/2000/svg">
<path d="M82.5 86.25L96.8 94.7L93.05 100.8L75 90V65H82.5V86.25ZM115 85C115 104.35 99.35 120 80 120C70.45 120 61.85 116.2 55.55 110H30C24.45 110 20 105.55 20 100V20C20 17.3478 21.0536 14.8043 22.9289 12.9289C24.8043 11.0536 27.3478 10 30 10H35V45L47.5 37.5L60 45V10H90C92.6522 10 95.1957 11.0536 97.0711 12.9289C98.9464 14.8043 100 17.3478 100 20V56.3C109.05 62.65 115 73.1 115 85ZM105 85C105 71.2 93.8 60 80 60C66.2 60 55 71.2 55 85C55 98.8 66.2 110 80 110C93.8 110 105 98.8 105 85Z" fill="#E6EB12"/>
</svg>
