<svg width="120" height="140" viewBox="0 0 120 140" fill="none" xmlns="http://www.w3.org/2000/svg">
<path fill-rule="evenodd" clip-rule="evenodd" d="M43.8649 45.15C40.2753 43.5146 36.3234 43.3072 32.6225 44.5601C28.9216 45.813 25.6786 48.456 23.3968 52.0789C21.115 55.7019 19.9221 60.1023 20.0031 64.5971C20.0841 69.092 21.4345 73.43 23.8448 76.9379C26.255 80.4458 29.5904 82.9274 33.3332 83.9977C37.0759 85.068 41.0169 84.667 44.5444 82.8571C48.0719 81.0472 50.9887 77.9294 52.8421 73.9877C54.6956 70.0461 55.382 65.5009 54.7949 61.0575C54.745 60.6789 54.7595 60.2925 54.8376 59.9204C54.9157 59.5483 55.0558 59.1979 55.25 58.889C55.4442 58.5801 55.6887 58.3188 55.9694 58.1202C56.2501 57.9215 56.5616 57.7893 56.8862 57.731C57.2107 57.6728 57.5419 57.6897 57.8608 57.7808C58.1797 57.8719 58.4801 58.0354 58.7449 58.262C59.0097 58.4885 59.2336 58.7737 59.4039 59.1012C59.5742 59.4288 59.6875 59.7922 59.7374 60.1708C60.4914 65.8836 59.6082 71.727 57.2247 76.7943C54.8412 81.8615 51.0908 85.8693 46.5554 88.1957C42.0201 90.5221 36.9534 91.0371 32.1415 89.6606C27.3297 88.2842 23.0418 85.0934 19.9432 80.5833C16.8446 76.0731 15.1085 70.4959 15.0045 64.7171C14.9004 58.9383 16.4341 53.281 19.3677 48.623C22.3012 43.9651 26.4704 40.5669 31.2285 38.9559C35.9865 37.345 41.0673 37.6112 45.6824 39.7133C45.9924 39.849 46.2763 40.0551 46.5174 40.3198C46.7586 40.5844 46.9523 40.9023 47.0873 41.255C47.2223 41.6077 47.2959 41.9882 47.3038 42.3744C47.3117 42.7605 47.2538 43.1447 47.1335 43.5045C47.0131 43.8644 46.8327 44.1928 46.6027 44.4706C46.3726 44.7484 46.0976 44.9702 45.7935 45.123C45.4894 45.2758 45.1624 45.3566 44.8313 45.3607C44.5002 45.3649 44.1717 45.2952 43.8649 45.15Z" fill="#0D8964"/>
<path fill-rule="evenodd" clip-rule="evenodd" d="M35 113.75V90.4167C35 89.6431 35.2634 88.9013 35.7322 88.3543C36.2011 87.8073 36.837 87.5 37.5 87.5C38.163 87.5 38.7989 87.8073 39.2678 88.3543C39.7366 88.9013 40 89.6431 40 90.4167V113.75C40 114.524 39.7366 115.265 39.2678 115.812C38.7989 116.359 38.163 116.667 37.5 116.667C36.837 116.667 36.2011 116.359 35.7322 115.812C35.2634 115.265 35 114.524 35 113.75Z" fill="#0D8964"/>
<path fill-rule="evenodd" clip-rule="evenodd" d="M27.5 99.1667C27.5 98.3931 27.7634 97.6513 28.2322 97.1043C28.7011 96.5573 29.337 96.25 30 96.25H45C45.663 96.25 46.2989 96.5573 46.7678 97.1043C47.2366 97.6513 47.5 98.3931 47.5 99.1667C47.5 99.9402 47.2366 100.682 46.7678 101.229C46.2989 101.776 45.663 102.083 45 102.083H30C29.337 102.083 28.7011 101.776 28.2322 101.229C27.7634 100.682 27.5 99.9402 27.5 99.1667ZM72.255 44.5171C69.4845 43.6046 66.5638 43.5036 63.7518 44.223C60.9398 44.9425 58.3234 46.4602 56.1344 48.6415C53.9454 50.8229 52.2515 53.6006 51.2028 56.7285C50.1542 59.8564 49.7831 63.2377 50.1225 66.5729C50.1631 66.9543 50.1386 67.3413 50.0506 67.7116C49.9626 68.0819 49.8127 68.4283 49.6096 68.7308C49.4064 69.0333 49.1541 69.286 48.8669 69.4744C48.5798 69.6628 48.2636 69.7831 47.9365 69.8284C47.6094 69.8738 47.2779 69.8433 46.9609 69.7386C46.644 69.634 46.3479 69.4574 46.0896 69.2188C45.8314 68.9802 45.6161 68.6845 45.4561 68.3485C45.2961 68.0126 45.1947 67.6431 45.1575 67.2613C44.5734 61.5213 45.6296 55.717 48.162 50.749C50.6945 45.7809 54.5617 41.927 59.1635 39.7852C63.7653 37.6434 68.8444 37.3335 73.6126 38.9037C78.3808 40.4738 82.5714 43.8362 85.5342 48.469C88.497 53.1018 90.0663 58.746 89.9985 64.5257C89.9307 70.3054 88.2297 75.8973 85.1594 80.4339C82.0891 84.9704 77.8212 88.1978 73.018 89.6152C68.2148 91.0326 63.1449 90.5608 58.595 88.2729C58.2935 88.1214 58.0204 87.9021 57.7915 87.6276C57.5626 87.353 57.3823 87.0285 57.2609 86.6726C57.0157 85.9539 57.0253 85.1509 57.2875 84.4404C57.5497 83.7299 58.0432 83.17 58.6592 82.884C59.2753 82.5979 59.9635 82.6091 60.5725 82.915C62.772 84.0206 65.1426 84.5878 67.5376 84.5813C69.9326 84.5748 72.3009 83.9949 74.496 82.8775C76.6911 81.76 78.6662 80.1288 80.2991 78.0847C81.932 76.0407 83.1879 73.6274 83.989 70.9942C84.7902 68.3611 85.1195 65.5641 84.9566 62.7764C84.7938 59.9887 84.1422 57.2697 83.0422 54.7877C81.9423 52.3057 80.4173 50.1135 78.5618 48.3469C76.7063 46.5803 74.5598 45.2767 72.255 44.5171Z" fill="#0D8964"/>
<path fill-rule="evenodd" clip-rule="evenodd" d="M81.9825 50.1871C81.5138 49.6401 81.2505 48.8984 81.2505 48.125C81.2505 47.3516 81.5138 46.6099 81.9825 46.0629L100.732 24.1879C100.963 23.9093 101.239 23.6871 101.544 23.5343C101.849 23.3814 102.177 23.301 102.509 23.2976C102.841 23.2942 103.17 23.368 103.477 23.5147C103.785 23.6613 104.064 23.8779 104.298 24.1518C104.533 24.4256 104.719 24.7513 104.845 25.1097C104.97 25.4682 105.033 25.8522 105.031 26.2395C105.028 26.6268 104.959 27.0095 104.828 27.3653C104.697 27.7212 104.506 28.043 104.267 28.3121L85.5175 50.1871C85.0486 50.7339 84.4129 51.041 83.75 51.041C83.087 51.041 82.4513 50.7339 81.9825 50.1871Z" fill="#0D8964"/>
<path fill-rule="evenodd" clip-rule="evenodd" d="M102.31 43.75C101.982 43.745 101.657 43.6647 101.356 43.5135C101.054 43.3624 100.781 43.1433 100.552 42.869C100.323 42.5946 100.142 42.2703 100.02 41.9145C99.8986 41.5587 99.8382 41.1784 99.8425 40.7954L99.9675 29.2046L90.0325 29.3504C89.3694 29.3605 88.7301 29.0628 88.2552 28.5229C87.7802 27.9831 87.5086 27.2452 87.5 26.4717C87.4913 25.6981 87.7465 24.9523 88.2092 24.3982C88.672 23.8441 89.3044 23.5271 89.9675 23.5171L105.032 23.2954L104.842 40.8712C104.838 41.2543 104.769 41.6326 104.64 41.9846C104.51 42.3365 104.322 42.6553 104.087 42.9226C103.852 43.1899 103.574 43.4006 103.269 43.5426C102.964 43.6845 102.638 43.755 102.31 43.75Z" fill="#0D8964"/>
</svg>
