<svg width="97" height="97" viewBox="0 0 97 97" fill="none" xmlns="http://www.w3.org/2000/svg">
<g filter="url(#filter0_d_411_15)">
<g clip-path="url(#clip0_411_15)">
<mask id="mask0_411_15" style="mask-type:luminance" maskUnits="userSpaceOnUse" x="4" y="0" width="89" height="89">
<path d="M4 0H93V89H4V0Z" fill="white"/>
<path d="M55.1306 25.673H41.8696C41.6104 24.6614 41.5858 23.6039 41.7976 22.5813C42.0094 21.5587 42.452 20.5979 43.0916 19.7724C43.7313 18.9469 44.551 18.2784 45.4883 17.8179C46.4256 17.3574 47.4558 17.1171 48.5001 17.1154C49.5444 17.1171 50.5745 17.3574 51.5118 17.8179C52.4492 18.2784 53.2689 18.9469 53.9085 19.7724C54.5481 20.5979 54.9907 21.5587 55.2025 22.5813C55.4143 23.6039 55.3897 24.6614 55.1306 25.673Z" fill="black"/>
<path d="M29.6731 29.0962C28.7652 29.0962 27.8945 28.7355 27.2526 28.0936C26.6106 27.4516 26.25 26.5809 26.25 25.6731C26.25 24.7652 26.6106 23.8945 27.2526 23.2526C27.8945 22.6106 28.7652 22.25 29.6731 22.25H67.3269C68.2348 22.25 69.1055 22.6106 69.7474 23.2526C70.3894 23.8945 70.75 24.7652 70.75 25.6731C70.75 26.5809 70.3894 27.4516 69.7474 28.0936C69.1055 28.7355 68.2348 29.0962 67.3269 29.0962H29.6731Z" fill="black"/>
<path fill-rule="evenodd" clip-rule="evenodd" d="M63.9039 73.5961C64.8117 73.5961 65.6824 73.2355 66.3243 72.5935C66.9663 71.9516 67.3269 71.0809 67.3269 70.1731V34.2308C67.3269 33.3229 66.9663 32.4522 66.3243 31.8103C65.6824 31.1683 64.8117 30.8077 63.9039 30.8077H33.0962C32.1883 30.8077 31.3176 31.1683 30.6757 31.8103C30.0337 32.4522 29.6731 33.3229 29.6731 34.2308V70.1731C29.6731 71.0809 30.0337 71.9516 30.6757 72.5935C31.3176 73.2355 32.1883 73.5961 33.0962 73.5961H63.9039ZM57.0577 39.3654C57.0577 38.9114 57.238 38.4761 57.559 38.1551C57.88 37.8342 58.3153 37.6538 58.7692 37.6538C59.2232 37.6538 59.6585 37.8342 59.9795 38.1551C60.3005 38.4761 60.4808 38.9114 60.4808 39.3654V63.3269C60.4808 63.7808 60.3005 64.2162 59.9795 64.5372C59.6585 64.8581 59.2232 65.0384 58.7692 65.0384C58.3153 65.0384 57.88 64.8581 57.559 64.5372C57.238 64.2162 57.0577 63.7808 57.0577 63.3269V39.3654ZM48.5 37.6538C48.0461 37.6538 47.6108 37.8342 47.2898 38.1551C46.9688 38.4761 46.7885 38.9114 46.7885 39.3654V63.3269C46.7885 63.7808 46.9688 64.2162 47.2898 64.5372C47.6108 64.8581 48.0461 65.0384 48.5 65.0384C48.9539 65.0384 49.3893 64.8581 49.7103 64.5372C50.0312 64.2162 50.2116 63.7808 50.2116 63.3269V39.3654C50.2116 38.9114 50.0312 38.4761 49.7103 38.1551C49.3893 37.8342 48.9539 37.6538 48.5 37.6538ZM36.5192 39.3654C36.5192 38.9114 36.6996 38.4761 37.0205 38.1551C37.3415 37.8342 37.7769 37.6538 38.2308 37.6538C38.6847 37.6538 39.1201 37.8342 39.441 38.1551C39.762 38.4761 39.9423 38.9114 39.9423 39.3654V63.3269C39.9423 63.7808 39.762 64.2162 39.441 64.5372C39.1201 64.8581 38.6847 65.0384 38.2308 65.0384C37.7769 65.0384 37.3415 64.8581 37.0205 64.5372C36.6996 64.2162 36.5192 63.7808 36.5192 63.3269V39.3654Z" fill="black"/>
</mask>
<g mask="url(#mask0_411_15)">
<path d="M48.5 89C73.0767 89 93 69.0767 93 44.5C93 19.9233 73.0767 0 48.5 0C23.9233 0 4 19.9233 4 44.5C4 69.0767 23.9233 89 48.5 89Z" fill="#F5344B"/>
</g>
</g>
</g>
<defs>
<filter id="filter0_d_411_15" x="0" y="0" width="97" height="97" filterUnits="userSpaceOnUse" color-interpolation-filters="sRGB">
<feFlood flood-opacity="0" result="BackgroundImageFix"/>
<feColorMatrix in="SourceAlpha" type="matrix" values="0 0 0 0 0 0 0 0 0 0 0 0 0 0 0 0 0 0 127 0" result="hardAlpha"/>
<feOffset dy="4"/>
<feGaussianBlur stdDeviation="2"/>
<feComposite in2="hardAlpha" operator="out"/>
<feColorMatrix type="matrix" values="0 0 0 0 0 0 0 0 0 0 0 0 0 0 0 0 0 0 0.25 0"/>
<feBlend mode="normal" in2="BackgroundImageFix" result="effect1_dropShadow_411_15"/>
<feBlend mode="normal" in="SourceGraphic" in2="effect1_dropShadow_411_15" result="shape"/>
</filter>
<clipPath id="clip0_411_15">
<rect width="89" height="89" fill="white" transform="translate(4)"/>
</clipPath>
</defs>
</svg>
