<svg width="48" height="47" viewBox="0 0 48 47" fill="none" xmlns="http://www.w3.org/2000/svg">
<path d="M31.6832 23.7144C34.6368 25.0814 37.1552 27.2091 38.9688 29.8697C40.7824 32.5304 41.823 35.6239 41.9792 38.8191C41.9998 39.1118 41.9605 39.4056 41.8635 39.6832C41.7666 39.9608 41.614 40.2167 41.4147 40.4358C41.2153 40.6549 40.9733 40.8328 40.7029 40.9591C40.4324 41.0854 40.1389 41.1575 39.8395 41.1712C39.5402 41.1849 39.2411 41.1399 38.9598 41.0389C38.6784 40.9378 38.4206 40.7828 38.2013 40.5828C37.9819 40.3829 37.8056 40.1421 37.6827 39.8745C37.5597 39.6069 37.4926 39.318 37.4852 39.0247C37.3216 35.6305 35.8295 32.4283 33.3185 30.0829C30.8075 27.7374 27.4705 26.4289 24.0002 26.4289C20.5299 26.4289 17.1929 27.7374 14.6819 30.0829C12.1709 32.4283 10.6787 35.6305 10.5152 39.0247C10.4748 39.5992 10.2062 40.1354 9.76705 40.5184C9.32787 40.9015 8.75298 41.1009 8.16548 41.074C7.57799 41.0472 7.02459 40.7961 6.62381 40.3746C6.22302 39.9532 6.00671 39.3948 6.02119 38.8191C6.17677 35.6241 7.21679 32.5307 9.0299 29.87C10.843 27.2094 13.361 25.0816 16.3142 23.7144C14.4212 22.1684 13.0606 20.0889 12.4173 17.7589C11.7741 15.4288 11.8795 12.9613 12.7192 10.692C13.5589 8.4227 15.0921 6.46173 17.1103 5.07585C19.1285 3.68998 21.5337 2.94647 23.9987 2.94647C26.4637 2.94647 28.8689 3.68998 30.8871 5.07585C32.9053 6.46173 34.4385 8.4227 35.2782 10.692C36.1179 12.9613 36.2233 15.4288 35.58 17.7589C34.9368 20.0889 33.5762 22.1684 31.6832 23.7144ZM31.5002 14.6875C31.5002 12.7398 30.71 10.8719 29.3035 9.49469C27.897 8.11747 25.9893 7.34376 24.0002 7.34376C22.0111 7.34376 20.1034 8.11747 18.6969 9.49469C17.2904 10.8719 16.5002 12.7398 16.5002 14.6875C16.5002 16.6352 17.2904 18.5031 18.6969 19.8803C20.1034 21.2575 22.0111 22.0313 24.0002 22.0313C25.9893 22.0313 27.897 21.2575 29.3035 19.8803C30.71 18.5031 31.5002 16.6352 31.5002 14.6875Z" fill="#079E7A"/>
</svg>
